<svg width="48" height="39" viewBox="0 0 48 39" fill="none" xmlns="http://www.w3.org/2000/svg">
<path d="M15.3311 38.1059C32.9154 38.1059 42.5317 23.5376 42.5317 10.9053C42.5317 10.4914 42.5232 10.0796 42.5041 9.66943C44.3706 8.32014 45.9934 6.6359 47.2733 4.71954C45.5604 5.48057 43.7172 5.99305 41.7833 6.22412C43.7569 5.0407 45.2726 3.1678 45.9876 0.935579C44.1401 2.03102 42.0944 2.82703 39.9173 3.2563C38.1722 1.39824 35.6877 0.236023 32.9387 0.236023C27.6587 0.236023 23.3771 4.51763 23.3771 9.79504C23.3771 10.5455 23.4613 11.2747 23.6246 11.9748C15.6798 11.5757 8.63445 7.77109 3.91987 1.98703C3.09789 3.39939 2.62463 5.04123 2.62463 6.79171C2.62463 10.1082 4.31257 13.0363 6.8792 14.7497C5.31103 14.7015 3.83772 14.2701 2.54937 13.5536C2.54725 13.5933 2.54725 13.6336 2.54725 13.6755C2.54725 18.3058 5.84312 22.1713 10.2169 23.0474C9.41403 23.2663 8.56927 23.3839 7.69694 23.3839C7.08112 23.3839 6.48226 23.3224 5.89982 23.2117C7.11663 27.0094 10.6462 29.7737 14.8308 29.8516C11.5583 32.4161 7.4362 33.944 2.95745 33.944C2.18635 33.944 1.42532 33.9 0.677002 33.8115C4.90773 36.5229 9.93128 38.1059 15.3311 38.1059Z" fill="#ECECEB"/>
</svg>
